<svg xmlns="http://www.w3.org/2000/svg" viewBox="0 0 63.5 18.815" height="71.111" width="240">
   <defs>
      <clipPath id="prefix__a" clipPathUnits="userSpaceOnUse">
         <path d="M579.827 570.909h488.843V299.228H579.827z" />
      </clipPath>
   </defs>
   <path
      d="M63.079 16.594c0 .995-.807 1.802-1.803 1.802H2.226a1.805 1.805 0 01-1.807-1.802V2.224A1.807 1.807 0 012.226.418h59.048c.996 0 1.804.807 1.804 1.804z"
      style="fill:#fff;fill-opacity:1;fill-rule:nonzero;stroke:none" />
   <path
      d="M61.274 18.815H2.226A2.226 2.226 0 010 16.594V2.224A2.227 2.227 0 012.226 0h59.048A2.228 2.228 0 0163.5 2.224v14.37a2.225 2.225 0 01-2.226 2.22"
      style="fill:#a6a5a5;fill-opacity:1;fill-rule:nonzero;stroke:none" />
   <path
      d="M63.079 16.594c0 .995-.807 1.802-1.803 1.802H2.226a1.805 1.805 0 01-1.807-1.802V2.224A1.807 1.807 0 012.226.418h59.048c.996 0 1.804.807 1.804 1.804z"
      style="fill:#010101;fill-opacity:1;fill-rule:nonzero;stroke:none" />
   <g clip-path="url(#prefix__a)" style="opacity:.10000598" transform="matrix(.06925 0 0 -.06925 -10.509 39.537)">
      <path
         d="M1036.532 570.91H579.827L758.71 299.227h277.822c17.73.014 32.103 14.37 32.137 32.094v207.48c-.03 17.727-14.404 32.088-32.137 32.107"
         style="fill:#fff;fill-opacity:1;fill-rule:nonzero;stroke:none" />
   </g>
   <path
      d="M13.159 5.215c.402-.503.677-1.187.6-1.882-.581.026-1.31.403-1.729.895-.37.433-.702 1.144-.617 1.812.654.049 1.326-.33 1.746-.825m1.473 4.361c-.014-1.483 1.214-2.204 1.27-2.238-.695-1.014-1.773-1.152-2.152-1.163-.905-.095-1.783.542-2.245.542-.47 0-1.18-.533-1.946-.517-.985.015-1.906.585-2.411 1.47-1.044 1.806-.266 4.458.734 5.918.5.715 1.084 1.512 1.848 1.484.748-.03 1.027-.476 1.93-.476.894 0 1.157.476 1.937.458.802-.012 1.308-.718 1.79-1.439.578-.818.81-1.626.819-1.667-.019-.006-1.559-.594-1.574-2.372zM56.055 11.766a1.328 1.328 0 00-.19-.754c-.17-.273-.432-.41-.782-.41a.93.93 0 00-.781.4c-.164.213-.26.468-.29.764zm.936.255c.002.15-.01.298-.036.445H54.01c.011.436.154.77.427 1 .248.206.569.309.963.309.436 0 .834-.07 1.191-.209l.154.68c-.418.183-.911.274-1.48.274-.686 0-1.223-.202-1.615-.604-.39-.403-.585-.944-.585-1.622 0-.665.181-1.22.545-1.662.382-.472.897-.708 1.545-.708.636 0 1.118.236 1.445.708.26.374.39.838.39 1.389m-4.389-1.136a1.708 1.708 0 00-.31-.027c-.345 0-.611.13-.8.39-.162.23-.244.522-.244.873v2.317h-.981v-3.025c0-.464-.01-.927-.029-1.39h.855l.036.844h.027c.104-.29.267-.524.49-.7.205-.153.454-.236.71-.236.09 0 .172.006.245.018zm-4.208 1.331c0-.404-.088-.751-.263-1.042-.206-.35-.5-.526-.882-.526-.393 0-.695.176-.9.526-.176.29-.263.644-.263 1.06 0 .405.087.753.263 1.043.212.35.508.526.892.526.375 0 .669-.18.882-.535.18-.297.27-.647.27-1.052zm1.017-.022c0 .678-.194 1.235-.582 1.671-.405.449-.945.673-1.617.673-.65 0-1.165-.215-1.55-.645-.385-.43-.577-.972-.577-1.626 0-.684.199-1.245.595-1.68.397-.437.932-.655 1.604-.655.648 0 1.169.216 1.563.645.377.417.564.956.564 1.617m-4.87-1.436h-1.082v2.144c0 .545.19.817.572.817.175 0 .321-.014.436-.045l.027.745c-.193.072-.448.108-.763.108-.388 0-.69-.118-.909-.354-.218-.237-.327-.633-.327-1.19v-2.227h-.645v-.736h.645v-.808l.964-.291v1.1h1.081zm-3.254 1.962c0 .521-.182.945-.544 1.272-.399.357-.955.536-1.669.536-.659 0-1.187-.127-1.586-.381l.227-.818c.43.255.903.382 1.418.382.37 0 .658-.084.863-.25a.816.816 0 00.31-.667.855.855 0 00-.255-.627c-.17-.17-.451-.327-.845-.472-1.073-.4-1.61-.985-1.61-1.754 0-.503.19-.914.568-1.236.379-.321.88-.482 1.505-.482.557 0 1.021.097 1.39.291l-.246.8a2.432 2.432 0 00-1.177-.282c-.346 0-.618.085-.812.255a.728.728 0 00-.246.555.75.75 0 00.282.6c.163.144.46.302.89.471.528.213.915.46 1.163.745.25.284.374.639.374 1.062zm-6.68-.509c0-.43-.097-.784-.291-1.063a1.004 1.004 0 00-.853-.436c-.242 0-.462.081-.66.24a1.116 1.116 0 00-.386.633c-.03.121-.046.22-.046.298v.737c0 .32.1.592.295.814.197.22.453.331.769.331.37 0 .658-.143.863-.427.206-.284.31-.66.31-1.127m1-.035c0 .75-.204 1.344-.613 1.78-.366.388-.82.582-1.362.582-.585 0-1.005-.209-1.26-.627v2.317h-.982v-4.755a30.1 30.1 0 00-.036-1.451h.863l.054.7h.019c.327-.527.823-.791 1.49-.791.52 0 .956.206 1.305.617.347.413.522.955.522 1.628zm-6.08.035c0-.43-.097-.784-.291-1.063a1.005 1.005 0 00-.854-.436 1.02 1.02 0 00-.66.24 1.117 1.117 0 00-.385.633 1.278 1.278 0 00-.046.298v.737c0 .32.099.592.296.814.197.22.453.331.767.331.37 0 .658-.143.863-.427.207-.284.31-.66.31-1.127m1-.035c0 .75-.204 1.344-.613 1.78-.365.388-.82.582-1.361.582-.585 0-1.006-.209-1.261-.627v2.317h-.982v-4.755c0-.471-.012-.955-.036-1.451h.863l.055.7h.018c.327-.527.824-.791 1.49-.791.522 0 .956.206 1.304.617.348.413.522.955.522 1.628zm-6.853-.292l-.518-1.599a20.478 20.478 0 01-.309-1.153h-.018c-.061.26-.158.645-.291 1.153l-.51 1.6zm1.79 2.554H24.42l-.573-1.799h-1.99l-.545 1.799h-1.018l1.972-6.124h1.218z"
      style="fill:#fff;fill-opacity:1;fill-rule:nonzero;stroke:none" /><text
      style="font-style:normal;font-variant:normal;font-weight:400;font-stretch:normal;font-size:56.02981186px;line-height:125%;font-family:'Open Sans';-inkscape-font-specification:'Open Sans';text-align:start;letter-spacing:0;word-spacing:0;text-anchor:start;fill:#000;fill-opacity:1;stroke:none;stroke-width:1.75093162px;stroke-linecap:butt;stroke-linejoin:miter;stroke-opacity:1"
      x="447.582" y="-477.29" transform="matrix(.06925 0 0 .06925 -10.509 39.537)">
      <tspan x="447.582" y="-477.29"
         style="font-style:normal;font-variant:normal;font-weight:400;font-stretch:normal;font-family:'Open Sans';-inkscape-font-specification:'Open Sans';fill:#fff;fill-opacity:1;stroke-width:1.75093162px">
         POBIERZ Z</tspan>
   </text>
</svg>