<svg xmlns="http://www.w3.org/2000/svg" width="304" height="304" viewBox="0 0 304 304">
    <path fill="#fff" d="M0 0h304v304H0z" />
    <path
        d="M2 2h14.286v14.286H2zm14.286 0h14.285v14.286H16.286zm14.285 0h14.286v14.286H30.571zm14.286 0h14.285v14.286H44.858zm14.286 0h14.285v14.286H59.144zm14.285 0h14.287v14.286H73.427zm14.287 0H102v14.286H87.715zm28.57 0h14.287v14.286h-14.287zm14.287 0h14.285v14.286h-14.284zm42.856 0h14.286v14.286h-14.286zM202 2h14.285v14.286H202zm14.285 0h14.286v14.286h-14.286zm14.286 0h14.286v14.286h-14.286zm14.286 0h14.286v14.286h-14.285zm14.286 0h14.286v14.286h-14.286zM273.429 2h14.285v14.286h-14.285zm14.285 0H302v14.286h-14.286zM2 16.286h14.286v14.285H2zm85.715 0H102v14.285H87.715zm28.57 0h14.287v14.285h-14.287zm14.287 0h14.285v14.285h-14.284zm14.285 0h14.286v14.285h-14.286zm57.143 0h14.285v14.285H202zm85.714 0H302v14.285h-14.286zM2 30.571h14.286v14.286H2zm28.571 0h14.286v14.286H30.571zm14.286 0h14.285v14.286H44.858zm14.286 0h14.285v14.286H59.144zm28.571 0H102v14.286H87.715zm57.143 0h14.286v14.286h-14.286zm28.571 0h14.286v14.286h-14.286zm28.572 0h14.285v14.286H202zm28.571 0h14.286v14.286h-14.286zm14.286 0h14.286v14.286h-14.285zm14.286 0h14.286v14.286h-14.286zm28.571 0H302v14.286h-14.286zM2 44.857h14.286v14.286H2zm28.571 0h14.286v14.285H30.571zm14.286 0h14.285v14.286H44.858zm14.286 0h14.285v14.285H59.144zm28.571 0H102v14.286H87.715zm28.572 0h14.286v14.286h-14.287zm28.571 0h14.286v14.285h-14.286zm57.143 0h14.285v14.285H202zm28.571 0h14.286v14.285h-14.286zm14.286 0h14.286v14.286h-14.285zm14.286 0h14.286v14.285h-14.286zm28.571 0H302v14.286h-14.286zM2 59.143h14.286v14.286H2zm28.571 0h14.286v14.286H30.571zm14.286 0h14.285v14.286H44.858zm14.286 0h14.285v14.286H59.144zm28.571 0H102v14.286H87.715zm71.429 0h14.285v14.286h-14.285zm42.857 0h14.285v14.286H202zm28.571 0h14.286v14.286h-14.286zm14.286 0h14.286v14.286h-14.285zm14.286 0h14.286v14.286h-14.286zm28.571 0H302v14.286h-14.286zM2 73.429h14.286v14.286H2zm85.715 0H102v14.286H87.715zm42.857 0h14.285v14.286h-14.284zm28.571 0h14.285v14.286h-14.285zm14.285 0h14.286v14.286h-14.286zm28.572 0h14.285v14.286H202zm85.714 0H302v14.286h-14.286zM2 87.714h14.286V102H2zm14.286 0h14.285V102H16.286zm14.285 0h14.286V102H30.571zm14.286 0h14.285V102H44.858zm14.286 0h14.285V102H59.144zm14.285 0h14.287V102H73.427zm14.287 0H102V102H87.715zm28.57 0h14.287V102h-14.287zm28.572 0h14.286V102h-14.286zm28.571 0h14.286V102h-14.286zm28.572 0h14.285V102H202zm14.285 0h14.286V102h-14.286zm14.286 0h14.286V102h-14.286zm14.286 0h14.286V102h-14.285zm14.286 0h14.286V102h-14.286z" />
    <path
        d="M273.429 87.714h14.285V102h-14.285zm14.285 0H302V102h-14.286zM116.286 102h14.286v14.286h-14.287zm42.857 0h14.285v14.286h-14.285zm14.285 0h14.286v14.286h-14.286zM2 116.286h14.286v14.286H2zm28.571 0h14.286v14.286H30.571zm14.286 0h14.285v14.286H44.858zm28.572 0h14.285v14.286H73.43zm14.285 0H102v14.286H87.715zm14.286 0h14.286v14.286H102zm42.857 0h14.286v14.286h-14.286zm14.286 0h14.285v14.286h-14.285zm14.285 0h14.286v14.286h-14.286zm28.572 0h14.285v14.286H202zm42.857 0h14.286v14.286h-14.285zm28.572 0h14.285v14.286h-14.285zm14.285 0H302v14.286h-14.286zM2 130.572h14.286v14.285H2zm42.857 0h14.285v14.285H44.858zm57.143 0h14.286v14.285H102z" />
    <path
        d="M116.286 130.572h14.286v14.285h-14.287zm57.142 0h14.286v14.285h-14.286zM187.714 130.572H202v14.285h-14.286zm42.857 0h14.286v14.285h-14.286zm14.286 0h14.286v14.285h-14.285zm14.286 0h14.286v14.285h-14.286zM273.429 130.572h14.285v14.285h-14.285zm14.285 0H302v14.285h-14.286zM16.286 144.857h14.285v14.286H16.286zm42.856 0h14.286v14.286H59.144zm28.572 0H102v14.286H87.715zm14.286 0h14.286v14.286H102z" />
    <path
        d="M116.286 144.857h14.286v14.286h-14.287zm14.286 0h14.285v14.286h-14.284zm14.285 0h14.286v14.286h-14.286zm14.286 0h14.285v14.286h-14.285zm42.857 0h14.285v14.286H202zm14.285 0h14.286v14.286h-14.286zm28.572 0h14.286v14.286h-14.285zm28.572 0h14.285v14.286h-14.285zm14.285 0H302v14.286h-14.286zM30.571 159.143h14.286v14.285H30.571zm14.286 0h14.285v14.285H44.858zm14.286 0h14.286v14.285H59.143zm14.286 0h14.286v14.285H73.429zm57.143 0h14.285v14.285h-14.284zm14.285 0h14.286v14.285h-14.286zm71.428 0h14.287v14.285h-14.286zm28.573 0h14.285v14.285h-14.285zm28.57 0h14.286v14.285h-14.285zM2 173.428h14.286v14.286H2zm14.286 0h14.285v14.286H16.286zm14.285 0h14.286v14.286H30.571zm28.571 0h14.286v14.286H59.144zm14.286 0h14.287v14.286H73.427zm14.287 0H102v14.286H87.715zm28.57 0h14.287v14.286h-14.287zm14.287 0h14.285v14.286h-14.284zm28.571 0h14.285v14.286h-14.285zm28.571 0H202v14.286h-14.286zm14.286 0h14.285v14.286H202zm28.571 0h14.286v14.286h-14.286zm14.286 0h14.286v14.286h-14.285zm42.857 0H302v14.286h-14.286zm-171.428 14.286h14.286V202h-14.287zm42.857 0h14.285V202h-14.285zm14.285 0h14.286V202h-14.286zm57.143 0h14.286V202h-14.286zM2 202h14.286v14.286H2zm14.286 0h14.285v14.286H16.286zm14.285 0h14.286v14.285H30.571zm14.286 0h14.285v14.286H44.858zm14.286 0h14.285v14.285H59.144zm14.285 0h14.287v14.285H73.427zm14.287 0H102v14.286H87.715zm28.57 0h14.287v14.286h-14.287zm28.572 0h14.286v14.285h-14.286zm14.286 0h14.285v14.286h-14.285zm28.571 0H202v14.285h-14.286zm42.857 0h14.286v14.285h-14.286zM2 216.286h14.286v14.286H2zm85.715 0H102v14.286H87.715zm28.57 0h14.287v14.286h-14.287zm14.287 0h14.285v14.286h-14.284zm14.285 0h14.286v14.286h-14.286zm28.571 0h14.286v14.286h-14.286zM187.714 216.286H202v14.286h-14.286zm42.857 0h14.286v14.286h-14.286zm14.286 0h14.286v14.286h-14.285zm14.286 0h14.286v14.286h-14.286zM273.429 216.286h14.285v14.286h-14.285zM2 230.572h14.286v14.286H2zm28.571 0h14.286v14.286H30.571zm14.286 0h14.285v14.286H44.858zm14.286 0h14.285v14.286H59.144zm28.571 0H102v14.286H87.715zm42.858 0h14.285v14.286h-14.284zm28.571 0h14.285v14.286h-14.285zm28.571 0H202v14.286h-14.286zm28.571 0h14.286v14.286h-14.286zm14.286 0h14.286v14.286h-14.286zm28.572 0h14.286v14.286h-14.286zM273.429 230.572h14.285v14.286h-14.285zM2 244.858h14.286v14.285H2zm28.571 0h14.286v14.285H30.571zm14.286 0h14.285v14.285H44.858zm14.286 0h14.285v14.285H59.144zm28.571 0H102v14.285H87.715zm28.572 0h14.286v14.285h-14.287zm28.571 0h14.286v14.285h-14.286zm14.286 0h14.285v14.285h-14.285zm14.285 0h14.286v14.285h-14.286z" />
    <path
        d="M187.714 244.858H202v14.285h-14.286zm85.715 0h14.285v14.285h-14.285zM2 259.143h14.286v14.286H2zm28.571 0h14.286v14.286H30.571zm14.286 0h14.285v14.286H44.858zm14.286 0h14.285v14.286H59.144zm28.571 0H102v14.286H87.715zm28.572 0h14.286v14.286h-14.287zm42.857 0h14.285v14.286h-14.285zm14.285 0h14.286v14.286h-14.286zm42.857 0h14.286v14.286h-14.286zm42.858 0h14.286v14.286h-14.286zM2 273.429h14.286v14.285H2zm85.715 0H102v14.285H87.715zm71.428 0h14.285v14.285h-14.285zm14.285 0h14.286v14.285h-14.286zm28.572 0h14.286v14.285H202zm28.571 0h14.286v14.285h-14.286zm14.286 0h14.286v14.285h-14.285zm42.857 0H302v14.285h-14.286zM2 287.714h14.286V302H2zm14.286 0h14.285V302H16.286zm14.285 0h14.286V302H30.571zm14.286 0h14.285V302H44.858zm14.286 0h14.285V302H59.144zm14.285 0h14.287V302H73.427zm14.287 0H102V302H87.715zm28.57 0h14.287V302h-14.287zm42.858 0h14.285V302h-14.285zm14.285 0h14.286V302h-14.286zM187.714 287.714H202V302h-14.286zm14.286 0h14.286V302H202zm42.857 0h14.286V302h-14.285zm14.286 0h14.286V302h-14.286z" />
</svg>