<svg xmlns="http://www.w3.org/2000/svg" width="260" height="92.076" viewBox="0 0 68.792 24.362">
   <path
      d="M0 0h20.508v6.056h-6.47v18.306H6.4V6.056H0V0M33.621 18.03l-3.716 6.332H21.2l8.018-12.56L20.855 0h9.05l4.301 6.09L37.784 0h8.705l-7.878 12.318 8.533 12.044h-9.05l-4.473-6.331M58.676 10.598c1.72 0 2.374-.895 2.374-2.236 0-1.342-.653-2.237-2.374-2.237h-2.168v4.473zm.86 6.021h-3.028v7.743h-7.639V0h10.667c6.125 0 9.256 3.441 9.256 8.362 0 4.507-3.13 8.257-9.256 8.257"
      fill="#fff" />
</svg>