<svg xmlns="http://www.w3.org/2000/svg" width="300" height="106.241" viewBox="0 0 79.375 28.109">
    <g fill="#040606">
        <path
            d="M0 0h23.663v6.988h-7.465v21.121H7.385V6.988H0V0M38.794 20.804l-4.288 7.305H24.461l9.251-14.49L24.064 0h10.442l4.963 7.027L43.598 0h10.044l-9.091 14.213 9.846 13.896H43.955l-5.161-7.305M67.703 12.229c1.985 0 2.739-1.033 2.739-2.581s-.754-2.58-2.74-2.58h-2.501v5.16zm.992 6.947h-3.494v8.933h-8.814V0h12.308c7.067 0 10.68 3.97 10.68 9.648 0 5.2-3.613 9.528-10.68 9.528" />
    </g>
</svg>